<svg width="22" height="22" viewBox="0 0 22 22" fill="none" xmlns="http://www.w3.org/2000/svg">
<path d="M19 0H3C2.20435 0 1.44129 0.31607 0.87868 0.87868C0.31607 1.44129 0 2.20435 0 3L0 19C0 19.7956 0.31607 20.5587 0.87868 21.1213C1.44129 21.6839 2.20435 22 3 22H19C19.7956 22 20.5587 21.6839 21.1213 21.1213C21.6839 20.5587 22 19.7956 22 19V3C22 2.20435 21.6839 1.44129 21.1213 0.87868C20.5587 0.31607 19.7956 0 19 0V0ZM14.485 9.69875L14.2638 11.6138C14.2548 11.7013 14.2139 11.7825 14.1489 11.8417C14.0839 11.901 13.9992 11.9342 13.9113 11.935H11.9113L11.9012 17.6162C11.9019 17.6836 11.8761 17.7485 11.8293 17.7969C11.7825 17.8453 11.7186 17.8734 11.6512 17.875H9.625C9.59131 17.875 9.55796 17.8682 9.52696 17.8551C9.49596 17.8419 9.46794 17.8226 9.44459 17.7983C9.42124 17.774 9.40304 17.7452 9.39108 17.7137C9.37912 17.6822 9.37365 17.6487 9.375 17.615V11.935H7.875C7.82789 11.9345 7.78133 11.9247 7.73799 11.9063C7.69466 11.8878 7.65538 11.8609 7.62242 11.8273C7.58945 11.7936 7.56344 11.7538 7.54587 11.7101C7.5283 11.6664 7.51951 11.6196 7.52 11.5725L7.5125 9.65625C7.51184 9.60897 7.5205 9.56203 7.53798 9.5181C7.55546 9.47417 7.58143 9.43411 7.6144 9.40022C7.64736 9.36632 7.68668 9.33925 7.73011 9.32056C7.77354 9.30186 7.82022 9.2919 7.8675 9.29125H9.375V7.44125C9.375 5.29375 10.65 4.125 12.52 4.125H14.0525C14.0999 4.12549 14.1467 4.13533 14.1903 4.15395C14.2338 4.17258 14.2733 4.19962 14.3064 4.23353C14.3395 4.26744 14.3656 4.30755 14.3831 4.35156C14.4007 4.39557 14.4094 4.44262 14.4087 4.49V6.10375C14.4094 6.15113 14.4007 6.19818 14.3831 6.24219C14.3656 6.2862 14.3395 6.32631 14.3064 6.36022C14.2733 6.39413 14.2338 6.42117 14.1903 6.4398C14.1467 6.45842 14.0999 6.46826 14.0525 6.46875H13.1125C12.0963 6.46875 11.8988 6.96875 11.8988 7.69V9.29125H14.1325C14.1834 9.29206 14.2335 9.30361 14.2796 9.32512C14.3256 9.34664 14.3667 9.37765 14.3999 9.41612C14.4332 9.45458 14.458 9.49964 14.4727 9.54835C14.4873 9.59705 14.4915 9.64831 14.485 9.69875Z" fill="#D9D9D9"/>
</svg>
