<svg width="22" height="22" viewBox="0 0 22 22" fill="none" xmlns="http://www.w3.org/2000/svg">
<path d="M16.5 0H5.5C2.47527 0 0 2.47419 0 5.5V16.5C0 19.5247 2.47527 22 5.5 22H16.5C19.5247 22 22 19.5247 22 16.5V5.5C22 2.47419 19.5247 0 16.5 0ZM11 15.5832C8.46834 15.5832 6.41658 13.5305 6.41658 11C6.41658 8.46834 8.46834 6.41658 11 6.41658C13.5305 6.41658 15.5834 8.46834 15.5834 11C15.5834 13.5305 13.5305 15.5832 11 15.5832ZM16.9584 6.41658C16.1983 6.41658 15.5834 5.80083 15.5834 5.04158C15.5834 4.28232 16.1983 3.66658 16.9584 3.66658C17.7185 3.66658 18.3334 4.28232 18.3334 5.04158C18.3334 5.80083 17.7185 6.41658 16.9584 6.41658Z" fill="#D9D9D9"/>
</svg>
