<svg width="22" height="18" viewBox="0 0 22 18" fill="none" xmlns="http://www.w3.org/2000/svg">
<path d="M22 2.10037C21.1819 2.45658 20.3101 2.69268 19.4012 2.80732C20.3363 2.25323 21.0499 1.38251 21.3854 0.333002C20.5136 0.848883 19.5511 1.21328 18.5254 1.41663C17.6976 0.541812 16.5179 0 15.2309 0C12.7339 0 10.7236 2.01166 10.7236 4.47779C10.7236 4.83263 10.7539 5.17382 10.8281 5.49864C7.0785 5.31712 3.76063 3.53338 1.53175 0.816129C1.14262 1.48623 0.914375 2.25323 0.914375 3.07891C0.914375 4.62928 1.71875 6.0036 2.91775 6.79926C2.19313 6.78561 1.48225 6.5768 0.88 6.24789C0.88 6.26154 0.88 6.27928 0.88 6.29702C0.88 8.47246 2.44337 10.2794 4.4935 10.6957C4.12637 10.7953 3.72625 10.8431 3.311 10.8431C3.02225 10.8431 2.73075 10.8267 2.45712 10.7666C3.0415 12.5395 4.69975 13.8428 6.6715 13.8851C5.137 15.0766 3.18863 15.7944 1.07938 15.7944C0.7095 15.7944 0.35475 15.778 0 15.733C1.99787 17.0118 4.36562 17.7419 6.919 17.7419C15.2185 17.7419 19.756 10.9181 19.756 5.00323C19.756 4.80534 19.7491 4.61427 19.7395 4.42457C20.6346 3.79404 21.3867 3.00658 22 2.10037Z" fill="#D9D9D9"/>
</svg>
